<svg xmlns="http://www.w3.org/2000/svg" viewBox="0 0 8 8" shape-rendering="crispEdges">
  <!-- Deb: blue on her left, red on her right, a pink bow. Same drawing as src/components/site/deb.tsx (idle). -->
  <rect x="3" y="0" width="1" height="1" fill="#ff6fb5"/>
  <rect x="4" y="0" width="1" height="1" fill="#ff6fb5"/>
  <rect x="6" y="0" width="1" height="1" fill="#ff6fb5"/>
  <rect x="7" y="0" width="1" height="1" fill="#ff6fb5"/>
  <rect x="1" y="1" width="1" height="1" fill="#4d8dff"/>
  <rect x="2" y="1" width="1" height="1" fill="#4d8dff"/>
  <rect x="3" y="1" width="1" height="1" fill="#ff6fb5"/>
  <rect x="4" y="1" width="1" height="1" fill="#ff6fb5"/>
  <rect x="5" y="1" width="1" height="1" fill="#ff6fb5"/>
  <rect x="6" y="1" width="1" height="1" fill="#ff6fb5"/>
  <rect x="7" y="1" width="1" height="1" fill="#ff6fb5"/>
  <rect x="0" y="2" width="1" height="1" fill="#4d8dff"/>
  <rect x="2" y="2" width="1" height="1" fill="#4d8dff"/>
  <rect x="3" y="2" width="1" height="1" fill="#ff6fb5"/>
  <rect x="4" y="2" width="1" height="1" fill="#ff6fb5"/>
  <rect x="6" y="2" width="1" height="1" fill="#ff6fb5"/>
  <rect x="7" y="2" width="1" height="1" fill="#ff6fb5"/>
  <rect x="0" y="3" width="1" height="1" fill="#4d8dff"/>
  <rect x="2" y="3" width="1" height="1" fill="#4d8dff"/>
  <rect x="3" y="3" width="1" height="1" fill="#a66dae"/>
  <rect x="4" y="3" width="1" height="1" fill="#ff4d5e"/>
  <rect x="6" y="3" width="1" height="1" fill="#ff4d5e"/>
  <rect x="0" y="4" width="1" height="1" fill="#4d8dff"/>
  <rect x="1" y="4" width="1" height="1" fill="#4d8dff"/>
  <rect x="2" y="4" width="1" height="1" fill="#4d8dff"/>
  <rect x="3" y="4" width="1" height="1" fill="#a66dae"/>
  <rect x="4" y="4" width="1" height="1" fill="#ff4d5e"/>
  <rect x="5" y="4" width="1" height="1" fill="#ff4d5e"/>
  <rect x="6" y="4" width="1" height="1" fill="#ff4d5e"/>
  <rect x="0" y="5" width="1" height="1" fill="#4d8dff"/>
  <rect x="1" y="5" width="1" height="1" fill="#4d8dff"/>
  <rect x="5" y="5" width="1" height="1" fill="#ff4d5e"/>
  <rect x="6" y="5" width="1" height="1" fill="#ff4d5e"/>
  <rect x="0" y="6" width="1" height="1" fill="#4d8dff"/>
  <rect x="1" y="6" width="1" height="1" fill="#4d8dff"/>
  <rect x="2" y="6" width="1" height="1" fill="#4d8dff"/>
  <rect x="3" y="6" width="1" height="1" fill="#a66dae"/>
  <rect x="4" y="6" width="1" height="1" fill="#ff4d5e"/>
  <rect x="5" y="6" width="1" height="1" fill="#ff4d5e"/>
  <rect x="6" y="6" width="1" height="1" fill="#ff4d5e"/>
  <rect x="1" y="7" width="1" height="1" fill="#4d8dff"/>
  <rect x="5" y="7" width="1" height="1" fill="#ff4d5e"/>
</svg>
